<?xml version="1.0" standalone="no"?>
<!DOCTYPE svg PUBLIC "-//W3C//DTD SVG 20010904//EN"
 "http://www.w3.org/TR/2001/REC-SVG-20010904/DTD/svg10.dtd">
<svg version="1.0" xmlns="http://www.w3.org/2000/svg"
 width="170" height="65" viewBox="0 0 900.000000 520.000000"
 preserveAspectRatio="xMidYMid meet"  >

<g transform="translate(0.000000,520.000000) scale(0.100000,-0.100000)"
fill="white" stroke="none">
<path d="M3740 4773 c-492 -53 -900 -376 -1058 -838 -45 -131 -62 -245 -69
-461 l-6 -192 -66 -7 c-157 -17 -288 -80 -402 -194 -83 -83 -134 -166 -171
-276 -18 -56 -23 -92 -23 -180 0 -130 14 -192 65 -300 68 -140 163 -235 308
-306 l82 -40 0 -719 0 -719 26 -20 27 -21 2052 0 2052 0 21 23 22 23 0 717 0
716 83 40 c139 69 237 164 303 296 45 91 63 159 70 270 8 109 -16 219 -72 334
-44 89 -168 220 -254 269 -74 41 -191 79 -272 87 l-68 7 0 117 c0 253 -26 418
-91 587 -166 427 -556 729 -1014 783 -83 10 -1456 14 -1545 4z m1570 -147
c465 -77 819 -418 915 -881 11 -51 19 -154 22 -281 l6 -201 -54 -18 c-178 -58
-303 -165 -393 -335 -57 -107 -67 -163 -73 -377 l-5 -191 -45 34 c-103 79
-164 95 -373 99 -91 2 -164 7 -164 12 1 4 90 282 198 617 108 335 196 619 196
632 0 25 -43 64 -70 64 -41 0 -60 -35 -119 -220 -142 -441 -353 -1095 -355
-1097 -6 -6 -381 -13 -407 -8 l-29 7 0 802 c0 794 0 802 -20 824 -12 13 -33
22 -50 22 -17 0 -38 -9 -50 -22 -20 -22 -20 -30 -20 -824 0 -792 0 -803 -20
-809 -11 -3 -109 -4 -217 0 l-198 6 -42 127 c-23 70 -85 262 -138 427 -222
689 -236 730 -257 748 -11 9 -28 17 -38 17 -28 0 -70 -39 -70 -65 0 -12 88
-295 195 -626 107 -332 196 -610 198 -617 1 -11 -31 -14 -153 -17 -110 -2
-171 -8 -210 -20 -57 -17 -139 -63 -176 -97 l-22 -19 -5 193 c-5 206 -16 268
-64 362 -90 177 -222 293 -402 351 l-54 18 6 201 c3 125 12 231 22 281 45 216
136 392 284 548 174 182 392 297 641 336 30 5 386 9 790 10 589 1 752 -2 820
-13z m-2599 -1500 c197 -42 363 -208 405 -405 11 -54 14 -247 14 -1073 l0
-1008 -295 0 -295 0 0 699 c0 410 -4 710 -9 724 -7 17 -25 30 -58 42 -198 71
-306 173 -365 343 -29 86 -32 250 -4 325 47 131 140 241 255 301 119 63 226
78 352 52z m3798 -1 c221 -52 389 -245 408 -466 13 -152 -45 -310 -152 -415
-61 -60 -130 -100 -238 -139 -33 -12 -51 -25 -58 -42 -5 -14 -9 -314 -9 -724
l0 -699 -295 0 -295 0 0 1008 c0 1105 -1 1082 61 1203 42 84 144 186 228 229
114 57 233 72 350 45z m-1072 -794 c119 -18 213 -86 261 -189 26 -55 27 -65
30 -249 l3 -193 -1231 0 -1231 0 3 193 c3 184 4 194 30 249 45 97 141 170 246
188 66 11 1813 12 1889 1z m293 -1231 l0 -460 -1230 0 -1230 0 0 460 0 460
1230 0 1230 0 0 -460z"/>
</g>
</svg>
